<svg xmlns="http://www.w3.org/2000/svg" viewBox="0 0 2500 503">
    <path d="M1.2 1C3.3.6 4.9 0 6.6 0c69.2.3 138.3.2 207.5 1.1 23.6.3 45.2 8.6 64.6 22.4C322.9 54.9 327 144.8 266.3 177c-3.1 1.6-6.2 3.3-10.4 5.5 11.5 5.3 22.9 8.8 32.4 15.2 36.5 24.2 51.4 78.5 35 126.1-14.3 41.6-48.1 58.7-87.5 67.9-12.9 3-26.5 4.6-39.7 4.6-64.6.5-129.3.2-194.9.2V1zm69.1 337.6c48.1 0 94.8 1.1 141.4-.4 29.3-.9 50.5-32.3 48.7-62.9-1.7-30.1-20.3-55.7-48.9-57.1-46.2-2.2-92.5-1.5-138.8-2-.7 0-1.4 1-2.3 1.7l-.1 120.7zm.2-173.9c43 0 84.4 1.6 125.7-.5 30.4-1.5 47.5-25.8 46.4-59-1-29.4-18.4-47.1-49.6-47.9-39.2-1-78.4-.6-117.7-.6-1.6 0-3.2.9-4.8 1.3v106.7zm2143.1-54.4h57.6v30.9c6.4-4.9 14.2-10.4 21.4-16.6 44.2-37.9 148.9-33.3 184.8 43.1 30.9 65.7 29.5 131.8-12.1 192.9-23.1 33.9-58.8 46-99.3 43.8-35.2-1.9-66.1-12.9-90.5-45.5V503h-62c.1-131 .1-261.5.1-392.7zm58.5 144.7c2.6 14.4 4 29.1 8 43.1 9 31.2 36.3 54.3 64.5 56.3 37.8 2.7 65-11.3 78.6-44.8 17.4-42.6 16.8-85.6-8.6-125.4-29.9-47-101.7-43-127.1 6.2-10.3 20.2-15.4 41.5-15.4 64.6zm-99.4 100.6c0 11.8.4 23.7-.3 35.6-.2 2.9-3.9 7.9-6.2 8.1-18 1.5-36.3 4.1-54 2.3-15.6-1.6-24.3-14.9-29.1-30.2-37.1 30.2-79.7 36.8-125.1 31.2-37.9-4.7-69.3-35.8-72-70.4-3.7-47.6 14.6-78.6 57.3-89.9 30-7.9 61.2-11.1 91.9-16.4 7.4-1.3 15-2.4 22.2-4.3 14-3.8 24-11.5 25-27.4 1.1-16.4-5.3-29.2-20.7-35.4-26.3-10.6-53.2-10.3-79.1 1.8-11.8 5.5-18.9 16.7-25.1 35.6h-60.8c.1-23.2 8.1-42.6 23.5-59 20.3-21.7 46.8-30.2 75.4-33.1 29.9-3.1 59.6-3 88.6 6.8 39 13.2 57.7 38.9 57.6 80.1-.1 43.7 0 87.5 0 131.2.1 30.9.1 30.9 30.9 33.4zm-93.9-98.7c-19.2 3.3-36.7 5.9-54 9.5-18.2 3.8-36.7 7.1-54.1 13.5-17 6.2-22.8 22.1-22.2 39.2.5 16.3 11.7 25.5 26 30.5 24.6 8.6 49.3 7.5 72.8-3.4 16.8-7.9 29.6-20.7 31.1-40.4 1.4-16.6.4-33.1.4-48.9zM515.3 102.1c95.3-1.1 151.2 68.7 145.3 163.8-2 33.1-10.9 64-32.7 90.1-23.4 28.2-53.6 43-89.8 47-30.2 3.4-59.6 1.4-87.5-11.3-41.7-18.9-65.5-51.9-75.5-95.9-6.9-30.2-6.6-60.2 1.1-90 16.9-65.9 67.6-103.5 139.1-103.7zm-83 151.8c2.5 14 3.8 28.3 7.7 41.8 10 34.5 37.2 57.3 68.3 58.8 38.5 1.9 65.4-14.3 79.7-50.2 14-35 14-70.8-1.3-105.4-22.7-51.2-84.5-64.3-124.2-26.2-22.7 21.7-28.5 50.5-30.2 81.2zm413.6-151.8c86-.1 144.4 57.8 145.5 143.9.5 36.4-5.5 71.1-26.8 101.5-30.6 43.6-74.7 58.9-125.6 56.6-18.7-.9-38.1-5-55.6-11.9-41-16.1-65.4-47.8-76.3-90.2-9.5-37.2-8.5-74.2 3.7-110.6 18.6-55.7 69.6-89.2 135.1-89.3zm82.4 144c-1.4-7.6-2.8-22.4-6.9-36.4-10.5-35.5-38.1-57-73-58.6-32.8-1.4-62.4 17.9-75.1 51.8-15 39.9-13.9 79.7 8.7 116.9 23.5 38.8 76.9 47.3 111.9 18.3 26.7-21.9 33.3-52.3 34.4-92zm531.4-56.2c-19.6 0-38.7.2-57.8-.2-2.4 0-6-2.4-6.8-4.5-10.7-29.8-36-33.4-62.1-33.5-10.8-.1-22.4 2.6-32.4 6.8-21.4 9-23.8 33.2-3.7 44.9 13.9 8.1 30.3 12.4 46 16.8 22.2 6.3 45.2 10 67.3 16.7 56.5 17.1 78.6 73.7 46.9 120.4-15.2 22.4-37.9 34.5-63.9 40.8-38.5 9.3-76.7 10-114.3-3.6-40.2-14.5-61.4-43.7-64.6-87.8h61.4c17.4 45.5 66.7 63.3 112.9 40 10.7-5.4 17.8-13 18.5-25.6.8-13.5-4.4-25-16.5-29.5-21.5-8-44-13.5-66.1-20-18.3-5.4-37.2-9.2-54.9-16.2-34.1-13.5-48.9-36.7-48.7-72.1.2-30.9 18.2-57.3 50.2-68.9 44-16 89-18 133.2-.6 29.9 11.7 47.7 34.8 55.1 65.9.9 2.6.3 5.8.3 10.2zm-333.1-80.4h56.8V156h-55.6c-.4 5.6-.9 9.5-.9 13.3-.1 46.9-.1 93.7 0 140.6 0 6.2.5 12.5 1.1 18.7 1.2 12.4 8.1 19.8 20.6 20.4 11.4.6 22.9.1 35 .1v46.4c-25.9 6.4-52.3 6.1-77.8.4-29.7-6.6-41.8-27.1-42-65.8-.4-52.7-.1-105.3-.1-158v-15.5h-47.2v-47h46.5v-86h63.6v85.9zm531.1 287.9c-24.4 0-47.6.8-70.6-.2-22.3-.9-39.6-15.8-44.4-37.9-2.8-12.6-4.3-25.5-4.4-38.4-.5-49.5-.2-99.1-.2-148.7v-15.7h-47v-46.3h46.3V23.9h63.8v84.9h56.5v46.7h-54.2c-.6 4.2-1.5 7.1-1.5 10 0 50.4-.2 100.9.1 151.3.2 26.7 7.2 33.1 33.6 32.9h22.1l-.1 47.7zm106-286.9v48.9c24.5-41.6 58.4-63.2 108.4-55.8v60.3c-23.8-3.6-46.7-4.2-67 10.4-26.6 19.1-35.9 47.1-36.6 78-1 47.7-.3 95.4-.3 144.2h-62.4v-286h57.9z" fill="#d2d2d2"/>
</svg>
