<svg version="1.1" id="Capa_1" xmlns="http://www.w3.org/2000/svg" x="0" y="0" viewBox="0 0 512 512" xml:space="preserve">
    <style>
        .st1{fill:#d2d2d2}
    </style>
    <path class="st1" d="M442 119.5l-29.2 338.9C369.5 492 315.1 512 256 512s-113.5-20-156.8-53.6L70 119.5h372z"/>
    <path fill="#b5b4b4" d="M256 151.3v354l122.3-34.5 27.2-319.5z"/>
    <path fill="#fff" d="M364 289.8h-88.1l92.1-46.9 4-47.2H140l4.1 48.1h93.1l-89.4 44.7 4.2 49.2h159.4l-5.2 58.7L256 410l-52.2-14.7-1.4-36.5h-48.6l6.1 72L256 458l96.1-27.2 11.9-141z"/>
    <path class="st1" d="M165.4 67.2V33.8h48V15.7h-65.5v69.6h65.5V67.2zm76.1-24.3v-8.3h47.8V15.7h-65.4v43.2h46.9v8.3h-46.9v18.1h65.4V42.9zm74.8 0v-8.3h47.8V15.7h-65.5v43.2h46.9v8.3h-46.9v18.1h65.5V42.9z"/>
</svg>
