<svg version="1.1" id="Capa_1" xmlns="http://www.w3.org/2000/svg" x="0" y="0" viewBox="0 0 512 512" xml:space="preserve">
    <style>
        .st1{fill:#d2d2d2}
    </style>
    <path class="st1" d="M442 119.5l-29.2 338.9C369.5 492 315.1 512 256 512c-58.5 0-112.5-19.6-155.6-52.7L71.1 119.5H442z"/>
    <path fill="#b5b4b4" d="M256.5 151.2v353l122-34.4 27.2-318.6z"/>
    <path fill="#fff" d="M140.9 195.5l12 141.6h158.9l-5.2 58.5-50.1 13.5-52-14.6-1.3-36.4h-48.6l6.1 71.8 95.8 27.1 95.9-27.1 11.9-140.6H196.9l-4.1-45.8 175.4-1 4-47z"/>
    <path class="st1" d="M151.2 16.8v24.3h-23.3V16.8h-21.6v69.7h21.6V63.8h23.3v22.7h21.6V16.8zm98.3 0H183v24.3h21.7v46h23.2v-46h21.6zm123.8 48.1V17.3H350v69.8h56.8V64.9zm-58.4-47.6l-16.2 24.9-16.2-24.9h-23.3v69.8h23.3V52.5l16.2 24.8 16.2-24.8v34.6h23.3V17.3z"/>
</svg>
