<svg version="1.1" id="Ebene_1" xmlns="http://www.w3.org/2000/svg" x="0" y="0" viewBox="0 0 78.6 110.6" xml:space="preserve">
    <style>
        .st0{fill:#d2d2d2}
    </style>
    <path class="st0" d="M78.6 21.7H0l7.4 79.9 31.9 9.1 31.9-9.1 7.4-79.9z"/>
    <path d="M39.3 28.2v75.6l25.9-7.3 6.3-68.3H39.3z" fill="#b5b4b4"/>
    <path d="M59.8 38H20.1l-2.8 29.9.1-.2h33.8l-1.1 12.7-10.8 3.1-10.9-3.2-.7-7.7h-9.9l1.4 15.3 20.1 5.7 20.1-5.7 2.8-30H26.3l.5-10h24.9l.4 5.7h10L59.8 38z" fill="#fff"/>
    <path d="M39.3 38H20.1l-2.8 29.9.1-.2h21.9v-9.8H27.7l.5-10h11.1V38zM27.7 72.6h-9.9l1.4 15.3 20.1 5.7V83.5l-10.9-3.2-.7-7.7z" fill="#ebebeb"/>
    <path class="st0" d="M31.6 9.9h-7v5h12V0h-5v9.9zM53.9.1H41.7v5.2c1.6 1.6 2.5 2.4 4.9 4.8h-4.9v4.8h12.2v-4.8L49 5.3h4.9V.1z"/>
</svg>
