<svg version="1.1" id="Ebene_1" xmlns="http://www.w3.org/2000/svg" x="0" y="0" viewBox="0 0 2500 566" xml:space="preserve">
    <style>
        .st0{fill-rule:evenodd;clip-rule:evenodd;fill:#d2d2d2}
    </style>
    <path class="st0" d="M2390.4 42.2l104.5.6s-194.3 263.3-210.2 284.8c-5.2 6.9-13 14.4-17 23.7-10 23.4-20.3 74.6-20.3 74.6l-95.6.5s14.9-53.4 14.3-81.8c-.5-24.8-13.2-49.7-20.3-74.6-7.2-25.2-17-74.6-17-74.6h98.3l13.6 54.2 149.7-207.4"/>
    <path class="st0" d="M2192.5 97.7c19.3 11.6 31.1 75.8 31.1 75.8s-100.9 1.5-155.8 1.5h-47.5l-57.6 250.9h-88.1s54.9-272.6 67.8-322.1c4.2-16 28.7-13.3 70.2-13.3h66.2c42.7 0 92.7-5.4 113.7 7.2m-410.4 122.2s2.7-16.1-9.3-34.8c-10.3-15.9-19.8-19.6-47-20.4-76.6-2.4-75.1 54.3-75.1 54.3l131.4.9zm83.1-65c11.2 40.5-10.2 135.6-10.2 135.6s-111.7-1.9-172.9 0c-19 .6-41.8-2.1-47.5 6.8-8 12.4 2.9 31.5 12.1 39.6 10.6 9.3 31.3 10.3 38.7 11.3 49.7 6.3 153.6 1.6 153.6 1.6l-18 79.7s-146.9 7.4-220.3-10.2c-14.5-3.5-28.1-10.4-37.3-20.3-2.5-2.7-4.7-6.4-7.1-9.6-1.9-2.5-7.4-10.9-9.9-17.5-16.8-44.7 2-130.4 20.3-176.3 2.1-5.3 4.8-12.1 7.6-17.8 3.5-7.1 6.5-15.2 9.3-19.5 1.9-2.9 4.2-4.8 6.2-7.6 2.3-3.3 4.9-6.5 7.4-9.3 6.8-7.9 14.5-13.4 23.7-20.3 30.6-22.9 86-40.7 152.6-33.9 25.1 2.6 62.9 11.5 81.4 37.3 5.1 6.8 7.5 20.4 10.3 30.4zm-404.3-64.7l85.5-.5s-47.6 225.9-71.9 336.1h-98.3c-68.7 0-129.9 8.5-155.9-40.7-25.3-47.8-1.2-126.3 10.2-179.7 8-37.8 24.9-115 24.9-115l88.5-.8s-25 120.2-35.4 180.2c-3.7 21.5-11.4 41.7-3.4 57.6 7.6 15.1 18.3 16.2 50.8 17 10.3.2 44.1 0 44.1 0l60.9-254.2m-400 162.7c8.9-31.8 22-66.3 20.3-94.9-1.8-30.6-27.5-58.5-44.1-64.4-49.9-17.6-96.7 7-115.3 27.1-24 26-32.2 56.4-40.7 98.3-6.3 31.1-11.5 63.9 0 88.1 20.4 42.9 84 33.5 152.6 33.9 10.2-27.2 18.7-57.8 27.2-88.1zm118.7-125.4c9.8 71-27.7 149.3-53.5 217.5 26.3 2.4 49.4-.4 51 1.6 1.7 2.5-17.6 81.3-24.4 81.5-20.9.5-90.1 1.1-118.9 1.1-94.1 0-182.2 6.1-227.1-40.7-18.2-19-30.9-51.6-33.9-74.6-5.1-38.3 1.3-80.5 10.2-115.3 8-31.4 18.3-61 33.9-88.1 39.5-69 108.3-120.2 223.7-108.4 22.4 2.3 54.5 12.1 74.6 23.7 1.4.8 6.2 4.7 7.4 5.4 27 17.2 51.7 58.4 57 96.3zM763 90.6c-5.7 25.9-11.4 55.3-17.4 81h-94.9c7.4-28.4 13-56.6 20.3-81.4 30.4 0 58.7.4 92 .4M647.3 195.3h91.5c-12 66.2-35.7 173.1-54.2 247.5-11.6 46.5-19.4 80.5-50.9 105.1-2.8 2.2-4.4 1.2-6.8 3.4-5.8 5.5-32.6 11.9-47.5 13.6-24.1 2.6-51.4.3-81.1-.3 7.8-28.4 16.5-62.4 23.5-87.9 72.3 8.8 74.1-59.6 88.1-125.4 8.2-38.1 32.8-140.7 37.4-156M433.7 368.2l-2 5.1c-33.4 65.1-92.7 105-177.1 106.8-39.5.8-77.1-9.3-101.7-20.3-53-23.8-97.7-68-122-115.3-35-67.7-41.3-161.9 31.4-232.2 1.1 0-8.8 15.3-7.7 15.3l-2 6.5c-52.4 164 109 304.5 265.8 288.4 37.8-3.9 85.8-24.6 115.3-54.3"/>
    <path class="st0" d="M338.8 300.4c39.5.3 80.7-18.2 105.1-44.1-21.4 54.2-83.2 89.1-166.1 78-69.4-9.3-135.6-79.2-142.4-149.2-5-50.9 12.8-81.4 42-118.2-10.2 19.3-14 34.2-14.9 43.7-11.1 110.2 88.1 189.2 176.3 189.8"/>
    <path class="st0" d="M439.9 163.5c-6.1 14.1-41.5 40.6-57.1 44-61.8 13.2-101.3-16.1-122-49.5-3.1-5-8.8-18.6-9.8-22-8-27.3-4.3-68.7 19.6-90-7.2 20.3-8.3 44-4.5 59.3 2.3 9.3 9.3 25.5 16.3 35.7 12.8 18.6 20.9 23.1 37.3 33 7.4 4.4 15.3 8 18.7 9 15.7 4.5 48.6 16.6 101.5-19.5"/>
</svg>
