<svg xmlns="http://www.w3.org/2000/svg" viewBox="0 0 24 24">
    <path d="M23 11c0 .2.1.4.2.6.2.2.4.3.7.3h.1V13h-.1c-.3 0-.5.1-.7.3-.1.2-.2.4-.2.6 0 .2 0 .6.1 1 0 .4.1.8.1 1.1v.2c0 .4-.1.8-.4 1.1-.3.2-.6.4-1 .4h-1v-.9h.3c.2 0 .3-.1.5-.2.1-.2.2-.3.2-.5V16l-.1-1.9V14c0-.3.1-.6.2-.9.2-.2.4-.4.6-.4v-.1c-.3-.1-.5-.2-.7-.4-.1-.2-.2-.5-.2-.8v-.1l.1-1.9v-.1c0-.2-.1-.4-.1-.5-.1-.1-.3-.2-.5-.2h-.3V7.2h1c.4 0 .8.1 1 .4.2.3.4.7.4 1.1v.2c0 .3 0 .7-.1 1.1-.1.4-.1.7-.1 1zm-4 1.2c1.1.3 1.6 1 1.6 1.8 0 .5-.2 1-.6 1.3-.4.3-1 .5-1.6.5h-.2c-.4 0-.8-.1-1.2-.2-.4-.1-.8-.3-1.1-.6l.8-1.2c.4.4.9.6 1.5.6.5 0 .8-.2.8-.5 0-.2-.1-.3-.3-.4-.2-.1-.5-.2-.7-.3l-.1-.1c-1-.4-1.5-1-1.5-1.7v-.1c0-.5.2-1 .6-1.3.4-.3.9-.5 1.5-.5h.1c.8 0 1.5.3 2.1.8l-.8 1c-.3-.3-.8-.5-1.3-.5-.4 0-.6.1-.6.4 0 .2.1.3.3.4l.6.3c0 .2.1.2.1.3zM5.5 14.4h.2l.3 1.2c-.2.1-.5.2-.8.2h-.1c-1.1 0-1.6-.7-1.6-2V8.1h-.6c-.2 0-.3.1-.4.2-.1.2-.2.4-.2.6V11c0 .3-.1.6-.2.9-.1.2-.4.4-.7.4v.1c.3.1.5.2.7.4.1.2.2.5.2.8v2.2c0 .2 0 .4.1.6.1.1.3.2.4.2h.3v.9H2.2c-.4 0-.8-.1-1-.4-.2-.3-.4-.7-.4-1.1v-.2c0-.3 0-.7.1-1.1 0-.4.1-.7.1-1 0-.2-.1-.4-.2-.6-.2-.2-.4-.2-.7-.2H0v-1.1h.1c.3 0 .5-.1.7-.3.1-.1.2-.3.2-.5s0-.6-.1-1c0-.4-.1-.8-.1-1.1v-.2c0-.4.1-.8.4-1.1.3-.2.6-.4 1-.4h3V14c0 .1 0 .2.1.3.1 0 .2.1.2.1zm8.8-2.2c1.1.3 1.6 1 1.6 1.8 0 .5-.2 1-.6 1.3-.4.3-1 .5-1.6.5h-.2c-.4 0-.8-.1-1.2-.2-.4-.1-.8-.4-1.1-.6l.8-1.2c.4.4.9.6 1.5.6.5 0 .8-.2.8-.5 0-.2-.1-.3-.3-.4-.2-.1-.5-.2-.7-.3H13c-1.1-.4-1.6-1-1.6-1.7 0-.5.2-1 .6-1.3.4-.3 1-.5 1.5-.5h.1c.8 0 1.5.3 2 .8l-.8 1c-.3-.3-.8-.5-1.2-.5-.4 0-.7.1-.7.4 0 .2.1.3.3.4l.6.3c.3 0 .4 0 .5.1zM8.4 9.6h.1c.7 0 1.3.3 1.7.8.4.5.7 1.2.7 1.9v.1c0 .2 0 .5-.1.7H7.3c0 .4.2.7.5 1 .2.2.6.3.9.3h.2c.5 0 .9-.1 1.3-.4l.6 1.1c-.6.4-1.3.7-2.1.7h-.1c-.8 0-1.5-.3-2-.8-.5-.6-.8-1.3-.8-2.1V12.6c0-.8.3-1.5.8-2.1.4-.6 1.1-.9 1.8-.9zM7.3 12h2.1c0-.8-.3-1.2-1-1.2-.3 0-.5.1-.7.3-.2.3-.4.6-.4.9z" fill="#d2d2d2"/>
</svg>
