<svg xmlns="http://www.w3.org/2000/svg" viewBox="0 0 490.7 490.7">
    <path d="M245.3 0C172.9 0 96 22.4 96 64v192c0 42 75.1 64 149.3 64s149.3-22 149.3-64V64c.1-41.6-76.9-64-149.3-64zm128 256c0 20.2-52.6 42.7-128 42.7s-128-22.5-128-42.7v-29.9c27.9 19.6 78.9 29.9 128 29.9s100.1-10.3 128-29.9V256zm0-64c0 17.8-48.7 42.7-128 42.7s-128-24.9-128-42.7v-29.9c27.9 19.6 78.9 29.9 128 29.9s100.1-10.3 128-29.9V192zm0-64c0 17.8-48.7 42.7-128 42.7s-128-24.9-128-42.7V98.1c27.9 19.6 78.9 29.9 128 29.9s100.1-10.3 128-29.9V128zm-128-21.3c-79.3 0-128-24.9-128-42.7 0-17.8 48.7-42.7 128-42.7s128 24.9 128 42.7c0 17.8-48.7 42.7-128 42.7zm3.4 277.7l-3.2-.5c-18.7-3.1-21.5-7.9-21.5-10.5 0-4.2 8.5-10.7 21.4-10.7 12.6 0 20.9 6 21.4 10.3.6 5.9 5.7 10.4 11.6 9.6 5.9-.6 10.2-5.8 9.6-11.6-1.6-16.9-19.9-29.6-42.6-29.6-23.9 0-42.7 14.1-42.7 32 0 16.7 13.2 27.3 39.4 31.6l1.7-10.5 1.4 11.1c17.7 2.9 21.4 7.4 21.4 10.6 0 4.2-8.5 10.7-21.4 10.7-12.6 0-20.9-6-21.4-10.3-.6-5.9-5.6-10.2-11.6-9.6-5.9.6-10.2 5.8-9.6 11.6 1.6 16.9 19.9 29.6 42.6 29.6 23.9 0 42.7-14.1 42.7-32 .1-16.9-13.1-27.5-39.2-31.8zm146-11.1c0-17.6-14.4-32-32-32h-21.3c-17.6 0-32 14.4-32 32V416c0 17.6 14.4 32 32 32h21.3c4.9 0 9.5-1.2 13.7-3.2l.1.1c2.1 2.1 4.8 3.1 7.6 3.1s5.5-1 7.5-3.1c4.2-4.2 4.2-10.9 0-15.1l-.1-.1c2-4.2 3.2-8.8 3.2-13.7v-42.7zm-21.4 38.3l-3.1-3.1c-4.2-4.2-10.9-4.2-15.1 0s-4.2 10.9 0 15.1l3.1 3.1h-16.9c-5.9 0-10.7-4.8-10.7-10.7v-42.7c0-5.9 4.8-10.7 10.7-10.7h21.3c5.9 0 10.7 4.8 10.7 10.7v38.3zm96 15.1h-32V352c0-5.9-4.8-10.7-10.7-10.7S416 346.1 416 352v85.3c0 5.9 4.8 10.7 10.7 10.7h42.7c5.9 0 10.7-4.8 10.7-10.7s-4.9-10.6-10.8-10.6zm-293.9-41.6c-5.3-2.6-11.7-.5-14.3 4.8l-11.8 23.6-11.8-23.6c-2.6-5.3-9-7.4-14.3-4.8-5.3 2.6-7.4 9-4.8 14.3l19 37.9-18.9 37.9c-2.6 5.3-.5 11.7 4.8 14.3 1.5.8 3.2 1.1 4.8 1.1 3.9 0 7.7-2.2 9.6-5.9l42.7-85.3c2.4-5.2.3-11.6-5-14.3zm-86.7-43.2c-4.3-1.5-9.2 0-11.9 3.7l-23.5 31.3-23.5-31.3c-2.8-3.7-7.5-5.2-11.9-3.7s-7.3 5.5-7.3 10.1v85.3c0 5.9 4.8 10.7 10.7 10.7S32 443.2 32 437.3V384l12.8 17.1c4 5.4 13.1 5.4 17.1 0L74.7 384v53.3c0 5.9 4.8 10.7 10.7 10.7S96 443.2 96 437.3V352c0-4.6-2.9-8.7-7.3-10.1z" fill="#d2d2d2"/>
</svg>
