<svg xmlns="http://www.w3.org/2000/svg" viewBox="0 0 24 24">
    <path d="M7 10.2h-.9l-.5 2.6h.8c.6 0 1-.1 1.2-.3.3-.2.5-.6.5-1 .1-.5.1-.8-.1-1-.1-.2-.5-.3-1-.3zm5-4.5C5.4 5.7 0 8.5 0 12s5.4 6.3 12 6.3 12-2.8 12-6.3-5.4-6.3-12-6.3zm-3.3 7.4l-.9.6c-.3.1-.8.2-1.3.2H5.4L5 15.5H3.7l1.2-6.3h2.7c.8 0 1.4.2 1.7.6.4.4.5 1 .3 1.8-.1.3-.2.6-.3.8-.1.3-.3.5-.6.7zm4.1.8l.5-2.8c.1-.3 0-.5-.1-.7-.1-.1-.3-.2-.7-.2h-1.1l-.7 3.6H9.4l1.2-6.3H12l-.3 1.7h1.2c.8 0 1.3.1 1.6.4s.4.7.3 1.3l-.6 2.9h-1.4zm7.6-2.3c-.1.3-.2.6-.3.8-.1.3-.3.5-.6.7l-.9.6c-.3.1-.8.2-1.3.2h-1.2l-.3 1.7h-1.4l1.2-6.3h2.6c.8 0 1.4.2 1.7.6.5.4.6.9.5 1.7zm-2.6-1.4h-.9l-.5 2.6h.8c.6 0 1-.1 1.2-.3.3-.2.5-.6.6-1 .1-.5 0-.8-.1-1s-.6-.3-1.1-.3z" fill="#d2d2d2"/>
</svg>
