<svg version="1.1" id="Ebene_1" xmlns="http://www.w3.org/2000/svg" x="0" y="0" viewBox="0 0 27 24" xml:space="preserve">
    <style>
        .st0{fill:#d2d2d2}
    </style>
    <path class="st0" d="M15.9 12c0 1.3-1.1 2.4-2.4 2.4s-2.4-1.1-2.4-2.4 1.1-2.4 2.4-2.4 2.4 1 2.4 2.4z"/>
    <path class="st0" d="M13.5 17.5h-.7c-2.8 0-5.5-.4-8.1-1.2l.2.1c-1.4-.4-2.5-1.1-3.5-1.9C.6 13.9.1 13 0 12c0-1.6 1.7-3.2 4.7-4.2 2.5-.8 5.4-1.3 8.4-1.3h.8c3 0 5.8.5 8.5 1.3l-.2-.1c1.3.4 2.4 1 3.4 1.8.8.5 1.3 1.4 1.4 2.4 0 1.7-2 3.3-5.1 4.4-2.4.7-5.1 1.1-7.9 1.1-.2.1-.4.1-.5.1zm0-9.8h-.4c-2.9 0-5.7.5-8.3 1.3l.2-.1c-2.6.9-3.8 2.2-3.8 3.1 0 .9 1.3 2.3 4.2 3.3 2.2.7 4.8 1.1 7.5 1.1h1.2c2.7 0 5.3-.4 7.7-1.1h-.2c3-1 4.3-2.4 4.3-3.3-.1-.6-.5-1.2-1-1.5-.9-.7-1.9-1.2-3-1.6h-.1c-2.4-.8-5.1-1.2-7.9-1.2-.1-.1-.3-.1-.4 0z"/>
    <path class="st0" d="M8 24c-.5 0-.9-.1-1.3-.3-1.4-.8-1.9-3.1-1.3-6.1.7-3.1 1.8-5.9 3.3-8.4v.1c1.5-2.7 3.3-4.9 5.4-6.9.9-.8 2-1.5 3.2-2h.1c.4-.3.9-.4 1.4-.4.5 0 1 .1 1.4.3 1.4.8 1.9 3.4 1.2 6.6-.7 3-1.8 5.6-3.3 8l.1-.1c-1.5 2.6-3.2 4.9-5.3 6.8-1 .9-2.1 1.6-3.3 2.1h-.1c-.4.2-.9.3-1.5.3zM9.2 9.5l.5.3c-1.4 2.3-2.5 4.9-3.1 7.7v.2c-.5 2.8 0 4.5.7 4.9.2.1.4.2.7.2h.1c1 0 2.5-.6 4.2-2.1 2-1.9 3.7-4 5-6.4l.1-.1c1.3-2.2 2.4-4.7 3-7.3v-.2c.6-3.1.1-4.9-.7-5.4-.2-.1-.5-.1-.8-.1-.4 0-.7.1-1 .2-1.1.5-2.1 1.1-2.9 1.8-2 1.9-3.8 4.1-5.1 6.5l-.2.1-.5-.3z"/>
    <path class="st0" d="M19 24c-1.3 0-3-.8-4.7-2.3-2.2-2-4-4.3-5.5-6.8l-.1-.1c-1.4-2.3-2.6-5.1-3.2-8v-.2c-.2-.7-.3-1.5-.3-2.4 0-.5 0-1 .1-1.6v.1c.1-1 .6-1.9 1.4-2.4 1.4-.8 3.9 0 6.3 2.2 2 1.9 3.7 4.1 5.1 6.5l.1.1c1.4 2.3 2.6 5 3.2 7.8v.2c.2.7.3 1.5.3 2.4 0 .6 0 1.1-.1 1.7v-.1c-.1 1-.6 1.9-1.4 2.5-.3.3-.7.4-1.2.4zm-9.3-9.8c1.5 2.6 3.2 4.8 5.3 6.7 2.2 1.9 3.9 2.3 4.6 1.8.8-.4 1.3-2.3.8-5.2-.7-2.9-1.8-5.4-3.2-7.7l.1.1c-1.4-2.5-3-4.6-4.9-6.4-2.3-2.1-4.2-2.5-5-2.1-.5.4-.8 1-.8 1.6-.2.3-.2.8-.2 1.2 0 .8.1 1.5.2 2.2v-.1c.7 3 1.7 5.6 3.2 7.9h-.1z"/>
</svg>
