<svg xmlns="http://www.w3.org/2000/svg" viewBox="0 0 512 512">
    <path d="M511.8 329.1c-1.7-13.6-9.2-24.1-20.8-32.4 2.9 2 5.3 3.8-.1 0-7.2-5.1-3.4-2.4 0 0-28.5-20.3-65.7-15.8-96.7-4.5-12.4-20.3-13-35.8-5.8-57.9.9-2.8.3-4.4-2.6-5.6-7.1-3-17.3-1.4-24.4.5-2.5.6-4.3 1.9-4.8 4.4-5.2 24.2-21 46.4-34.8 66.9-9.7-18.7-9-33.1-2.4-52.5.8-2.4.4-3.6-1.9-4.9-7.3-3.8-18.4-1.9-25.8.3-8.5 2.5-21.3 44.6-25.4 52.9-8.5 17.4-16.1 44.7-30.6 58.5-12.3-15.8 22.5-51.5 10.9-65.9-3.9-4.8-11.1-4.7-15.6-.6 1.1-7.6 1.6-12.6-.3-19.1-2.1-6.8-7.4-10.7-15.1-10.5-18 .5-33.8 13.8-44.6 26.4-10.3 12.1-37.4 19.6-52 26.9-25-21.8-79.2-44.9-80.6-82.1-1.5-41.8 48.3-70.2 81.6-87.2 43.3-22.1 110-49.6 159.1-25.4 13 6.4 18.3 20.2 14.7 33.3-9.4 34.4-47.2 57.3-80.1 67.8-16.2 5.2-34 9-51.1 8-23-1.3-40.8-15.2-43.3-16.1-2-.4-1.9 2.3-1.3 3.7 23.8 62.4 144.4 16.7 176-15.4 15.2-15.4 24.4-30.4 28.4-53.9 4.6-27.6-15.6-44.8-31-52-78.2-36-185.9 11.2-244.8 59.3C21 173-11 206.2 3.7 241c15.9 37.8 64.7 57.2 96.5 80.3-25.7 12.8-57.9 26-74.5 49.9-9.5 13.7-12.9 28.4-5.8 44 12.6 27.6 58.3 15.6 77.6 3.5 17.7-11.1 29.6-26.1 34.7-45.2 4.5-16.6 3.5-33.9-3.9-49.5l28.6-14.5c-7.7 23.1-11.1 52 4.9 72.9 6.4 8.3 23 8.7 29.8.3 8.8-10.9 14.7-24.7 20.5-37.2-.7 9.4-1.9 20 1.4 28.2 3.7 9.4 12.1 11.3 20.8 5.3 26.5-18.2 43.4-68.7 56.5-98.1 3.6 12.8 7.5 24.5 14 36.4 1.6 2.9 1.4 4.8-.8 7.2-9.7 10.7-32.8 28.5-35.1 42.9-.5 3.4 1.7 6.6 5.7 7.4 15.6 3.1 32.8-2.5 45.5-11.1 13.2-8.9 17.4-21.1 14.2-35.5-4.6-20.8 11-44 25.8-61 2.7 12.9 6.8 25.3 14.1 36.6-13.1 11.5-32.6 27.8-29.8 46.9 1 6.9 7.1 11.3 14.5 9.7 15.8-3.3 29.4-10.1 39.4-22.1 9-10.9 5.8-22.7 1.9-34.6 23.9-6.8 48-8.2 71.8 0 11.5 3.9 20.8 10.5 26.2 20.8 6.7 12.6 2.9 24.3-10 32.6-3.3 2.1-5.6 3.8-4.5 4.7 1.1.9 4.9 2.1 13.3-3.2 8.4-5.3 13.5-12.4 14.8-21.7.3-2.6.3-5.2 0-7.8zm-398.9 25.3c-1.4 16.7-9.6 30.2-23.2 41.1-7.6 6.2-17.1 11.2-26.5 12.1-9.4.9-16.8-1.5-17.4-11.2-1.8-27.5 40.9-54.4 64.6-62.5 2.1 6.8 3.1 13.6 2.5 20.5zM216 281.9c-3.9 22.3-14.8 62.3-32.3 78.3-2.4 2.1-4.6 2-5.8-.8-10.3-24.1 3.7-73.7 33.1-81.3 3.5-.8 5.6.6 5 3.8zm70.4 81.8c8.4-9 16.8-17.9 25.3-26.9 1 10-17.6 29.9-25.3 26.9zm80.7-17.7c-2.3 1.3-7.6 2.5-7.8.8-1.5-12.1 11.8-24.9 20.1-30.9 4.4 11.4-.9 23.9-12.3 30.1z" fill="#bcbcbc"/>
</svg>
