<svg version="1.1" id="Ebene_1" xmlns="http://www.w3.org/2000/svg" x="0" y="0" viewBox="0 0 128 128" xml:space="preserve">
    <style>
        .st0,.st1{fill-rule:evenodd;clip-rule:evenodd;fill:#d2d2d2}.st1{fill:#b5b4b4}
    </style>
    <path class="st0" d="M43.3 121.2c.1 1 0 2.1.3 3 .1.4.9.6 1.4.9l.6.4c-.2.1-.5.4-.7.4h-5.6c-.2 0-.5-.2-.7-.4.2-.1.4-.4.6-.4 1.3-.1 1.6-.9 1.6-2v-6.2c0-1.2-.3-2-1.7-2-.2 0-.4-.3-.5-.5.2-.1.4-.3.5-.3 2.4 0 4.8 0 7.2.2 1.9.2 3.1 1.5 3.2 2.9.1 1.6-.7 2.8-2.6 3.5l-.7.3c1.2 1.2 2.3 2.3 3.5 3.3.5.4 1.3.7 2 .8 1.4.2 2.1-.4 2.2-1.7.1-2.2 0-4.5 0-6.7 0-1-.4-1.7-1.6-1.8-.2 0-.4-.3-.6-.4.2-.1.5-.4.7-.4 2.4 0 4.9-.1 7.3.2 4.1.4 6.4 3.8 5.2 7.6-.7 2.3-2.5 3.6-4.8 3.8-4 .3-7.9.2-11.9.2-.3 0-.7-.3-.9-.6l-2.7-3.3c-.3-.3-.6-.6-.9-1 0 .1-.4.2-.4.2zm13.1-5.8v8.2c0 .4.4 1 .8 1.2 1.5.6 3.8-.4 4.5-1.8.9-2 1-4.1-.2-5.9-1.2-2-3.2-1.8-5.1-1.7zm-13 4.5c1.3 0 2.7.3 3.2-1.1.3-.8.2-2-.2-2.7-.6-1.1-1.9-.9-3-.8v4.6z"/>
    <path class="st1" d="M96.8 119.3c.8-.2 1.7-.2 2.2-.5.5-.3.6-1.1.9-1.9.2.4.4.5.4.7v4.1c0 .2-.2.4-.3.6-.1-.1-.3-.2-.4-.3-.7-1.8-.7-1.8-2.8-1.6.3 1.4-.8 3.1.9 4.1.8.5 2.2.4 3.2.1.8-.3 1.5-1.2 2.2-1.8v3.1c-.4 0-.7.1-1 .1H89.7c-.7 0-1.2-.2-1.6-.8-.9-1.2-1.8-2.3-2.7-3.4-.2-.3-.5-.5-1-1v2.8c.1.9.5 1.4 1.4 1.5.3 0 .5.3.8.5-.3.1-.5.3-.8.3h-5.5c-.3 0-.6-.2-.9-.3l.2-.3c2.2-.9 2.2-.9 2.2-3.5v-4.9c0-1.1-.3-2-1.7-2.1-.2 0-.4-.3-.6-.4.2-.1.5-.3.7-.3 2.3 0 4.6-.1 6.9.2 2.5.2 4.1 2.3 3.1 4.3-.5 1.1-1.7 1.8-2.7 2.8 1 .9 2.1 2.2 3.5 3.1 1.9 1.3 3.3.6 3.3-1.7V117c0-1.2-.4-2-1.7-2-.2 0-.4-.2-.6-.3.7-.5 7.5-.7 10.4-.3l.2 3.2-.3.1c-.7-.7-.6-2.2-2-2.2-1.1 0-2.2-.1-3.3-.2-.2 1.3-.2 2.6-.2 4zm-12.7.6c2.6.1 3.6-.6 3.6-2.4-.1-1.7-1.2-2.4-3.6-2.1v4.5z"/>
    <path class="st0" d="M11.6 120.7c1-2.9 2-5.9 3-8.8.1-.4.5-.7.7-1.1.2.4.6.7.7 1.1.9 2.7 1.8 5.5 2.7 8.2.1.2.2.4.4 1 .9-2.8 1.8-5.3 2.6-7.8.3-.9-.1-1.5-1.1-1.6-.3 0-.7-.2-1.1-.3.7-.7 6-.8 6.8-.1-.2.1-.4.3-.6.3-1.6.1-2.4 1.1-2.9 2.5-1.3 3.8-2.5 7.6-3.8 11.4-.1.4-.3.8-.5 1.2h-.4l-3.6-10.8-3.5 10.7h-.4c-.2-.4-.4-.8-.5-1.2-1.2-3.6-2.3-7.2-3.5-10.8-.5-1.5-1-3.1-3-3.2-.1 0-.3-.2-.4-.3.2-.1.3-.4.5-.4h6.8c.2 0 .3.2.5.4-.2.1-.3.3-.5.4-1.8.6-2 .8-1.4 2.5.7 2.2 1.5 4.5 2.2 6.7h.3z"/>
    <path class="st1" d="M65.5 111.2c.3-.2.4-.5.6-.5 3 0 5.9-.1 8.9.2 2.8.3 4.3 2.9 3.5 5.4-.7 2.2-2.6 2.9-4.7 3.1-.9.1-1.8 0-2.8 0 .1 1.5.1 2.8.3 4.1.1 1.1.9 1.6 1.9 1.7.2 0 .5.3.7.4-.2.1-.5.4-.8.4h-6.6c-.3 0-.5-.2-.8-.3.2-.2.4-.5.7-.5 1.5-.1 2-1 2-2.2v-9.2c0-1.3-.6-2.1-2.1-2.2l-.8-.4zM71 118c2.7.3 3.7 0 4.3-1.2.6-1.2.7-2.4-.1-3.6-1.1-1.6-2.7-1.1-4.2-1.2v6z"/>
    <path class="st0" d="M31.1 126.5c-2.4-.1-4.3-.9-5.8-2.6-2.1-2.5-1.7-6 .7-8.2 2.6-2.4 7-2.5 9.7-.2 1.8 1.6 2.7 3.5 2.1 6-.7 2.7-2.6 4.2-5.2 4.9-.5 0-1.1 0-1.5.1zm4.5-6.3l-.2-.1c-.1-.7-.2-1.4-.5-2.1-.6-2-2-2.9-4-2.9s-3.3 1-3.9 3c-.6 1.8-.5 3.5.4 5.2 1.3 2.5 4.8 2.9 6.5.7.9-1.1 1.2-2.6 1.7-3.8z"/>
    <path class="st1" d="M122.7 114.3l.9-.8v4.4l-.3.2c-.2-.3-.5-.6-.6-.9-.6-1.7-1.9-2.6-3.3-2.1-.5.1-1.1.6-1.2 1.1-.1.4.3 1.1.7 1.4 1 .7 2.1 1.2 3.2 1.7 2.4 1.2 3.2 2.8 2.4 4.7-.8 1.9-3.3 2.9-5.5 2.2-.6-.2-1.2-.5-1.7-.8l-.9 1.1-.4-.1V122c0-.1.2-.3.3-.4.2.2.4.4.5.7.5 1.7 1.5 2.8 3.3 2.9 1 .1 2 0 2.4-1.2.3-1.1-.4-1.7-1.2-2.1-.9-.5-1.8-.9-2.7-1.4-.4-.2-.8-.4-1.2-.7-1.3-.9-1.8-2.3-1.4-3.6.3-1.2 1.5-2.2 3-2.3 1.3 0 2.4.2 3.7.4zm-16.2 11c-.2.3-.3.6-.4.8-.1.1-.4.2-.5.2-.1 0-.3-.3-.3-.5v-3.9c0-.2.2-.3.3-.5.2.1.4.2.5.4.2.3.2.7.4 1 .7 1.5 2 2.4 3.6 2.2.6-.1 1.4-.6 1.8-1.1.4-.7-.1-1.5-.8-1.9-1-.6-2-1.1-3-1.6-2.3-1.1-3.3-3-2.4-4.7.8-1.7 3.3-2.5 5.4-1.6.3.1.5.2.7.4l1.1-.9c.1.3.2.4.2.5v3.6l-.3.2c-.2-.3-.5-.5-.6-.8-.6-1.5-1.5-2.4-2.8-2.2-.6.1-1.4.5-1.7 1-.4.8.2 1.4.9 1.7 1 .5 1.9 1 2.9 1.5 2.4 1.2 3.3 2.9 2.4 4.8-.8 1.9-3.3 2.8-5.5 2.1-.8 0-1.3-.4-1.9-.7z"/>
    <path class="st0" d="M65.3 1.4C38.5.9 16.1 22.6 16.1 49c0 27.1 21.3 48.7 48.1 48.7 26.5 0 47.9-21.6 47.9-48.2 0-26.1-21.3-47.6-46.8-48.1zm-1.2 93.9c-25.3 0-45.7-20.5-45.7-46.1 0-24.9 20.7-45.5 45.7-45.5 25.4 0 45.7 20.7 45.7 46.6 0 24.5-20.8 45-45.7 45zm24.4-59.4c-1-1.6-2.2-3.2-2.8-5-.6-2-1.2-4.3-.8-6.4.6-3.5 3.2-5.2 6.8-5.5C72.1.8 41.2 7.3 29.9 27.1c4.4-.2 8.5-.5 12.7-.5.8 0 2.1.7 2.3 1.3.4 1.4-.7 1.9-2 2-1.3.1-2.6.2-4.1.3 5 14.9 9.9 29.5 14.9 44.5.4-.6.5-.8.6-.9 2.8-8.3 5.5-16.5 8.2-24.8.2-.8.1-1.8-.1-2.5-1.4-4.1-3.1-8.1-4.4-12.3-.9-2.8-2-4.7-5.4-4.4-.6.1-1.3-1.2-1.9-1.8.8-.5 1.5-1.3 2.3-1.3 6.9-.1 13.7-.1 20.6 0 .8 0 1.6.9 2.3 1.4-.7.6-1.3 1.6-2.1 1.8-1.3.4-2.7.3-4.2.4 5 14.9 9.9 29.4 15 44.5 2.3-7.5 4.4-14.4 6.4-21.4 1.9-6.2.8-12-2.5-17.5zM52.7 88.1c-.1.3-.1.6-.2 1 8.5 2.3 16.8 2.2 25.2-.7L64.8 53c-4.1 12-8.1 23.6-12.1 35.1zm-6.5-1.6c-6.6-18-13-35.7-19.5-53.6-8.9 17.3-2.2 43.5 19.5 53.6zm54.4-55.4c-.3 3-.1 6.3-.9 9.4-2 7.2-4.5 14.2-6.9 21.2-2.6 7.7-5.3 15.3-7.9 22.9 12.4-7.4 19.3-18.3 20.4-32.6.6-8-2.2-19.3-4.7-20.9z"/>
</svg>
