<?xml version="1.0" encoding="utf-8"?>
<!-- Generator: Adobe Illustrator 25.0.1, SVG Export Plug-In . SVG Version: 6.00 Build 0)  -->
<svg version="1.1" id="Layer_1" xmlns="http://www.w3.org/2000/svg" xmlns:xlink="http://www.w3.org/1999/xlink" x="0px" y="0px"
	 viewBox="0 0 374.5 375.3" style="enable-background:new 0 0 374.5 375.3;" xml:space="preserve">
<style type="text/css">
	.st0{display:none;}
</style>
<g>
	<g>
		<g>
			<path d="M6.2,36.4l331.9,331.9c8.3,8.3,21.8,8.3,30.2,0c8.3-8.3,8.3-21.8,0-30.2L36.4,6.2c-8.3-8.3-21.8-8.3-30.2,0
				S-2.1,28.1,6.2,36.4z"/>
			<path class="st0" d="M401.5,121.9H65.1c-8.4,0-15.3,9.6-15.3,21.3c0,11.8,6.8,21.3,15.3,21.3h336.4c8.4,0,15.3-9.6,15.3-21.3
				C416.8,131.5,409.9,121.9,401.5,121.9z"/>
			<path d="M338.1,6.2L6.2,338.1c-8.3,8.3-8.3,21.8,0,30.2c8.3,8.3,21.8,8.3,30.2,0L368.3,36.4c8.3-8.3,8.3-21.8,0-30.2
				C360-2.1,346.4-2.1,338.1,6.2z"/>
		</g>
	</g>
</g>
</svg>
