<?xml version="1.0" encoding="utf-8"?>
<!-- Generator: Adobe Illustrator 25.0.1, SVG Export Plug-In . SVG Version: 6.00 Build 0)  -->
<svg version="1.1" id="Layer_1" xmlns="http://www.w3.org/2000/svg" xmlns:xlink="http://www.w3.org/1999/xlink" x="0px" y="0px"
	 viewBox="0 0 512 289.2" style="enable-background:new 0 0 512 289.2;" xml:space="preserve">
<g>
	<g>
		<g>
			<path d="M21.3,42.7h469.3c11.8,0,21.3-9.6,21.3-21.3S502.4,0,490.7,0H21.3C9.6,0,0,9.6,0,21.3S9.6,42.7,21.3,42.7z"/>
			<path d="M496.7,246.6H160.3c-8.4,0-15.3,9.6-15.3,21.3c0,11.8,6.8,21.3,15.3,21.3h336.4c8.4,0,15.3-9.6,15.3-21.3
				C512,256.1,505.2,246.6,496.7,246.6z"/>
			<g>
				<path d="M493.9,124.4h-401c-10.1,0-18.2,9.6-18.2,21.3c0,11.7,8.2,21.4,18.2,21.4h400.9c10.1,0,18.2-9.6,18.2-21.3
					C512.1,133.9,503.9,124.4,493.9,124.4z"/>
				<path d="M493.9,124.4h-401c-10.1,0-18.2,9.6-18.2,21.3c0,11.7,8.2,21.4,18.2,21.4h400.9c10.1,0,18.2-9.6,18.2-21.3
					C512.1,133.9,503.9,124.4,493.9,124.4z"/>
			</g>
		</g>
	</g>
</g>
</svg>
